<svg width="568" height="501" viewBox="0 0 568 501" fill="none" xmlns="http://www.w3.org/2000/svg">
    <path
        d="M123.121 34.1058C188.241 82.9938 258.281 182.123 284 235.315C309.719 182.123 379.759 82.9938 444.879 34.1058C491.866 -1.17017 568 -28.4642 568 58.3878C568 75.7338 558.055 204.101 552.222 224.943C531.947 297.396 458.067 315.876 392.347 304.691C507.222 324.242 536.444 389.002 473.333 453.762C353.473 576.754 301.061 422.903 287.631 383.481C285.169 376.254 284.017 372.873 284 375.748C283.983 372.873 282.831 376.254 280.369 383.481C266.939 422.903 214.527 576.754 94.667 453.762C31.556 389.002 60.778 324.242 175.653 304.691C109.933 315.876 36.053 297.396 15.778 224.943C9.945 204.101 0 75.7338 0 58.3878C0 -28.4642 76.134 -1.17017 123.121 34.1058Z"
        fill="#000000" />
</svg>
    