<svg width="40" height="41" viewBox="0 0 40 41" fill="none" xmlns="http://www.w3.org/2000/svg">
<path d="M0 5.10494C0 2.67604 1.96901 0.707031 4.39791 0.707031H35.6021C38.031 0.707031 40 2.67604 40 5.10494V36.3091C40 38.738 38.031 40.707 35.6021 40.707H4.3979C1.96901 40.707 0 38.738 0 36.3091V5.10494Z" fill="#333232"/>
<path d="M2.27832 20.4218V18.7506L5.60816 16.6647V16.6144L2.27832 14.5286V12.8574L7.12858 15.9987V17.2804L2.27832 20.4218Z" fill="#2F80ED"/>
<path d="M13.4567 20.9621C12.7949 20.9621 12.2671 20.849 11.8734 20.6228C11.4881 20.3883 11.2074 20.0658 11.0315 19.6553C10.8556 19.2448 10.7677 18.7673 10.7677 18.2228V16.0239H9.20954V14.6542L10.8556 14.5788L11.0944 12.6689H12.6148V14.5788H15.2535V16.0239H12.6148V18.2103C12.6148 18.5202 12.6608 18.7715 12.753 18.9642C12.8451 19.1569 12.9875 19.2993 13.1802 19.3914C13.3729 19.4752 13.62 19.5171 13.9216 19.5171C14.1645 19.5171 14.3865 19.4961 14.5875 19.4542C14.7886 19.4124 14.9813 19.3579 15.1656 19.2909L15.4923 20.6228C15.2158 20.7066 14.9101 20.782 14.575 20.849C14.2483 20.9244 13.8755 20.9621 13.4567 20.9621Z" fill="#2F80ED"/>
<path d="M20.2622 20.9621C19.6172 20.9621 19.0308 20.8364 18.5031 20.5851C17.9837 20.3254 17.569 19.9527 17.2591 19.4668C16.9575 18.9726 16.8067 18.382 16.8067 17.6951C16.8067 17.0165 16.9617 16.4343 17.2716 15.9485C17.5816 15.4542 17.9837 15.0773 18.4779 14.8176C18.9722 14.5579 19.4957 14.4281 20.0486 14.4281C20.6936 14.4281 21.2339 14.5621 21.6696 14.8302C22.1052 15.0898 22.4319 15.4459 22.6497 15.8982C22.8758 16.3422 22.9889 16.849 22.9889 17.4186C22.9889 17.5862 22.9764 17.7495 22.9512 17.9087C22.9345 18.0595 22.9177 18.1726 22.901 18.248H18.1764V17.004H21.657L21.368 17.3558C21.368 16.8532 21.2591 16.4762 21.0413 16.2249C20.8319 15.9652 20.5219 15.8354 20.1114 15.8354C19.8099 15.8354 19.546 15.9024 19.3198 16.0364C19.0936 16.1705 18.9177 16.3757 18.7921 16.6521C18.6664 16.9286 18.6036 17.2762 18.6036 17.6951C18.6036 18.1223 18.679 18.4741 18.8298 18.7506C18.9805 19.0186 19.1983 19.2197 19.4832 19.3537C19.768 19.4877 20.1114 19.5548 20.5135 19.5548C20.7983 19.5548 21.0664 19.5171 21.3177 19.4417C21.5774 19.3663 21.8455 19.2574 22.1219 19.115L22.7376 20.2333C22.3774 20.4595 21.9795 20.6396 21.5439 20.7736C21.1083 20.8993 20.6811 20.9621 20.2622 20.9621Z" fill="#2F80ED"/>
<path d="M27.9599 20.9621C27.3065 20.9621 26.716 20.8364 26.1882 20.5851C25.6688 20.3254 25.2542 19.9527 24.9442 19.4668C24.6427 18.9726 24.4919 18.382 24.4919 17.6951C24.4919 17.0082 24.6594 16.4218 24.9945 15.9359C25.3296 15.4417 25.7694 15.0689 26.3139 14.8176C26.8667 14.5579 27.4615 14.4281 28.0981 14.4281C28.5924 14.4281 29.0406 14.5076 29.4427 14.6668C29.8447 14.8176 30.1756 15.0186 30.4353 15.2699L29.5809 16.4134C29.3379 16.2459 29.1034 16.1244 28.8772 16.049C28.6594 15.9652 28.4332 15.9233 28.1987 15.9233C27.8468 15.9233 27.5327 15.9946 27.2563 16.137C26.9798 16.2794 26.7662 16.4846 26.6154 16.7527C26.4646 17.0207 26.3892 17.3349 26.3892 17.6951C26.3892 18.0553 26.4605 18.3694 26.6029 18.6375C26.7536 18.9055 26.9589 19.1108 27.2186 19.2532C27.4866 19.3956 27.7924 19.4668 28.1358 19.4668C28.4625 19.4668 28.7599 19.4082 29.028 19.2909C29.3044 19.1736 29.5557 19.0354 29.7819 18.8762L30.5233 20.0448C30.1547 20.3548 29.74 20.5851 29.2793 20.7359C28.8269 20.8867 28.3872 20.9621 27.9599 20.9621Z" fill="#2F80ED"/>
<path d="M32.0891 20.8113V12.0029H33.9362V14.1642L33.8356 15.3579H33.8733C34.1079 15.115 34.3927 14.9014 34.7278 14.7171C35.0713 14.5244 35.4775 14.4281 35.9466 14.4281C36.6503 14.4281 37.1613 14.6542 37.4796 15.1066C37.8063 15.559 37.9697 16.1788 37.9697 16.9663V20.8113H36.1226V17.205C36.1226 16.7862 36.0514 16.4804 35.9089 16.2877C35.7749 16.0951 35.5404 15.9987 35.2053 15.9987C34.954 15.9987 34.732 16.0574 34.5393 16.1747C34.355 16.2836 34.154 16.4427 33.9362 16.6521V20.8113H32.0891Z" fill="#2F80ED"/>
<path d="M6.13189 29.3391C5.47011 29.3391 4.94236 29.226 4.54864 28.9998C4.1633 28.7653 3.88267 28.4428 3.70676 28.0323C3.53084 27.6218 3.44288 27.1443 3.44288 26.5998V24.4009H1.88477V23.0312L3.53084 22.9558L3.76958 21.0459H5.29V22.9558H7.92874V24.4009H5.29V26.5873C5.29 26.8972 5.33607 27.1485 5.42822 27.3412C5.52037 27.5339 5.66278 27.6763 5.85545 27.7684C6.04812 27.8522 6.29524 27.8941 6.59681 27.8941C6.83974 27.8941 7.06173 27.8731 7.26278 27.8312C7.46382 27.7894 7.65649 27.7349 7.84079 27.6679L8.16749 28.9998C7.89105 29.0836 7.58529 29.159 7.25021 29.226C6.92351 29.3014 6.55073 29.3391 6.13189 29.3391Z" fill="#F2C84D"/>
<path d="M12.9374 29.3391C12.2924 29.3391 11.706 29.2134 11.1783 28.9621C10.6589 28.7024 10.2443 28.3297 9.93431 27.8438C9.63274 27.3496 9.48195 26.759 9.48195 26.0721C9.48195 25.3935 9.63692 24.8113 9.94687 24.3255C10.2568 23.8312 10.6589 23.4543 11.1532 23.1946C11.6474 22.9349 12.171 22.8051 12.7238 22.8051C13.3689 22.8051 13.9092 22.9391 14.3448 23.2072C14.7804 23.4668 15.1071 23.8229 15.3249 24.2752C15.5511 24.7192 15.6641 25.226 15.6641 25.7956C15.6641 25.9632 15.6516 26.1265 15.6265 26.2857C15.6097 26.4365 15.5929 26.5496 15.5762 26.625H10.8516V25.381H14.3322L14.0432 25.7328C14.0432 25.2302 13.9343 24.8532 13.7165 24.6019C13.5071 24.3422 13.1971 24.2124 12.7867 24.2124C12.4851 24.2124 12.2212 24.2794 11.995 24.4134C11.7689 24.5475 11.5929 24.7527 11.4673 25.0291C11.3416 25.3056 11.2788 25.6532 11.2788 26.0721C11.2788 26.4993 11.3542 26.8511 11.505 27.1276C11.6558 27.3956 11.8736 27.5967 12.1584 27.7307C12.4432 27.8647 12.7867 27.9318 13.1888 27.9318C13.4736 27.9318 13.7416 27.8941 13.9929 27.8187C14.2526 27.7433 14.5207 27.6344 14.7971 27.492L15.4128 28.6103C15.0526 28.8365 14.6547 29.0166 14.2191 29.1506C13.7835 29.2763 13.3563 29.3391 12.9374 29.3391Z" fill="#F2C84D"/>
<path d="M17.7828 29.1883V22.9558H19.2907L19.4414 24.3129H19.4791C19.7891 23.8019 20.1619 23.425 20.5975 23.182C21.0414 22.9307 21.5105 22.8051 22.0048 22.8051C22.2812 22.8051 22.5032 22.826 22.6708 22.8679C22.8467 22.9098 23.0268 22.9726 23.2111 23.0564L22.8341 24.6019C22.6414 24.5433 22.4655 24.5014 22.3064 24.4763C22.1556 24.4428 21.9629 24.426 21.7284 24.426C21.343 24.426 20.9619 24.5391 20.5849 24.7653C20.2163 24.9914 19.898 25.3852 19.6299 25.9464V29.1883H17.7828Z" fill="#F2C84D"/>
<path d="M24.2994 29.1883V22.9558H25.6941L25.8198 23.7223H25.87C25.9873 23.471 26.1507 23.2574 26.3601 23.0815C26.5695 22.8972 26.8543 22.8051 27.2145 22.8051C27.4826 22.8051 27.713 22.893 27.9056 23.0689C28.0983 23.2365 28.2282 23.4878 28.2952 23.8229C28.4124 23.538 28.58 23.2993 28.7978 23.1066C29.024 22.9056 29.3172 22.8051 29.6774 22.8051C30.1213 22.8051 30.4648 22.9852 30.7077 23.3454C30.9507 23.7056 31.0721 24.1956 31.0721 24.8155V29.1883H29.313V24.9412C29.313 24.5642 29.1999 24.3757 28.9737 24.3757C28.8564 24.3757 28.7517 24.426 28.6596 24.5265C28.5758 24.6187 28.492 24.7695 28.4083 24.9789V29.1883H26.9632V24.9412C26.9632 24.7485 26.9339 24.6061 26.8753 24.514C26.8166 24.4218 26.7287 24.3757 26.6114 24.3757C26.4941 24.3757 26.3936 24.426 26.3098 24.5265C26.2261 24.6187 26.1423 24.7695 26.0585 24.9789V29.1883H24.2994Z" fill="#F2C84D"/>
<path d="M35.1133 29.3391C34.5604 29.3391 34.0117 29.2469 33.4672 29.0627C32.9227 28.87 32.4536 28.6438 32.0599 28.3841L32.8515 27.2281C33.2285 27.471 33.6264 27.6553 34.0452 27.781C34.4725 27.9066 34.9123 27.9695 35.3646 27.9695C35.7081 27.9695 35.9594 27.9192 36.1185 27.8187C36.2777 27.7098 36.3573 27.5841 36.3573 27.4417C36.3573 27.3496 36.3321 27.2742 36.2819 27.2155C36.24 27.1485 36.1604 27.0899 36.0431 27.0396C35.9342 26.981 35.7793 26.9265 35.5782 26.8763C35.3855 26.826 35.1342 26.7674 34.8243 26.7003C33.9782 26.5161 33.3709 26.2647 33.0023 25.9464C32.6337 25.6281 32.4494 25.2302 32.4494 24.7527C32.4494 24.1663 32.7049 23.6972 33.2159 23.3454C33.7269 22.9852 34.4264 22.8051 35.3143 22.8051C35.8756 22.8051 36.3824 22.8972 36.8348 23.0815C37.2955 23.2574 37.6892 23.4501 38.0159 23.6595L37.1866 24.7653C36.8766 24.5726 36.5458 24.426 36.1939 24.3255C35.8421 24.225 35.4944 24.1747 35.151 24.1747C34.9583 24.1747 34.7992 24.1956 34.6735 24.2375C34.5479 24.271 34.4515 24.3297 34.3845 24.4134C34.3175 24.4888 34.284 24.5726 34.284 24.6647C34.284 24.8323 34.3929 24.9579 34.6107 25.0417C34.8285 25.1171 35.2013 25.2134 35.729 25.3307C36.3657 25.4731 36.8641 25.6365 37.2243 25.8208C37.5845 26.0051 37.8316 26.2187 37.9657 26.4616C38.1081 26.6962 38.1793 26.9852 38.1793 27.3286C38.1793 27.7056 38.062 28.0449 37.8274 28.3464C37.6013 28.648 37.2578 28.8909 36.7971 29.0752C36.3447 29.2511 35.7835 29.3391 35.1133 29.3391Z" fill="#F2C84D"/>
</svg>
